#!OML:ASF X:\für Bonn\!DataBase\2005_08_12_Daniel\c3d\Daniel.ASF
:FULLY-SPECIFIED
:DEGREES
187
root 0.0589997 18.7945 1.03485 -566.942 -99.4638 558.861
lowerback 6.6024 2.62728 2.23338
upperback -6.74643 2.9091 -7.09588
thorax -10.5114 0.795666 -9.47778
lowerneck 8.2904 -6.19231 1.81361
upperneck 11.3355 -8.917 3.73261
head 2.31788 -4.50712 0.90749
rclavicle -2.8625e-014 -2.22639e-014
rhumerus 96.7406 -3.4302 -165.265
rradius 9.40322
rwrist 132.331
rhand -0.636121 731.94
rfingers 7.12502
rthumb 24.9809 -16.4473
lclavicle -2.8625e-014 -2.22639e-014
lhumerus -117.733 208.894 -112.055
lradius 68.7769
lwrist 44.3534
lhand -17.6791 4.20988
lfingers 7.12502
lthumb 8.57998 34.0155
rfemur -0.340781 7.57305 12.3973
rtibia 33.9702
rfoot 11.408 -23.9502
rtoes -9.09336
lfemur -189.705 198.089 -203.609
ltibia 42.0347
lfoot 379.292 12.0046
ltoes 2.78829
188
root 0.0672566 18.7119 1.0348 -567.496 -99.2887 559.255
lowerback 6.58485 2.60643 2.20723
upperback -6.53345 2.90576 -6.99707
thorax -10.2652 0.823137 -9.32945
lowerneck 8.5116 -6.18502 1.75376
upperneck 10.8345 -8.88219 3.95652
head 2.12863 -4.4967 1.00391
rclavicle 6.83819e-014 -7.31528e-014
rhumerus 96.3656 -4.18311 -160.894
rradius 9.01228
rwrist 128.4
rhand -1.46062 732.282
rfingers 7.12502
rthumb 24.1906 -16.2122
lclavicle 6.83819e-014 -7.31528e-014
lhumerus -117.706 208.574 -112.124
lradius 69.1517
lwrist 44.1751
lhand -17.7668 4.0832
lfingers 7.12502
lthumb 8.49542 33.8923
rfemur -0.249658 7.38837 12.3878
rtibia 34.4256
rfoot 10.7009 -23.2281
rtoes -8.55632
lfemur -189.366 198.152 -203.77
ltibia 42.2328
lfoot 378.083 11.6487
ltoes 3.41664
189
root 0.0795515 18.6176 1.03422 -568.173 -99.1216 559.704
lowerback 6.68447 2.58305 2.17226
upperback -6.29516 2.89959 -6.8876
thorax -10.0634 0.848598 -9.17227
lowerneck 8.69863 -6.18634 1.6472
upperneck 10.3 -8.85842 4.18489
head 1.93813 -4.49317 1.10848
rclavicle -2.42517e-014 5.88403e-014
rhumerus 95.886 -4.98833 -156.492
rradius 8.75304
rwrist 124.558
rhand -2.65297 732.713
rfingers 7.12502
rthumb 23.047 -15.9294
lclavicle -2.42517e-014 5.88403e-014
lhumerus -117.639 208.261 -112.264
lradius 69.5718
lwrist 43.8685
lhand -17.818 3.78926
lfingers 7.12502
lthumb 8.44593 33.6004
rfemur -0.12804 7.15776 12.3831
rtibia 34.9884
rfoot 9.87589 -22.3156
rtoes -8.46191
lfemur -188.896 198.124 -203.954
ltibia 42.4463
lfoot 376.626 11.1789
ltoes 3.98203
190
root 0.0958281 18.507 1.03281 -569.033 -98.9837 560.286
lowerback 6.85573 2.55355 2.10843
upperback -6.01744 2.882 -6.78503
thorax -9.8642 0.870517 -9.00806
lowerneck 8.77844 -6.19221 1.54174
upperneck 9.76651 -8.84217 4.42226
head 1.76758 -4.49128 1.21195
rclavicle 3.69739e-014 -2.54444e-014
rhumerus 95.3478 -5.74285 -152.076
rradius 8.61
rwrist 120.809
rhand -4.09157 733.213
rfingers 7.12502
rthumb 21.666 -15.5951
lclavicle 3.69739e-014 -2.54444e-014
lhumerus -117.52 207.946 -112.522
lradius 70.0576
lwrist 43.4661
lhand -17.7531 3.33203
lfingers 7.12502
lthumb 8.5086 33.1406
rfemur 0.0126729 6.86884 12.3457
rtibia 35.638
rfoot 8.92963 -21.1882
rtoes -8.81947
lfemur -188.334 198.014 -204.173
ltibia 42.6688
lfoot 374.949 10.6458
ltoes 4.28766
191
root 0.113245 18.3926 1.0317 -569.928 -98.8536 560.854
lowerback 7.14425 2.5218 2.05846
upperback -5.73504 2.86148 -6.68284
thorax -9.73057 0.886228 -8.86198
lowerneck 8.86912 -6.20077 1.39675
upperneck 9.2043 -8.82903 4.66825
head 1.58935 -4.49302 1.32572
rclavicle -7.35503e-014 6.99722e-014
rhumerus 94.7167 -6.47888 -147.637
rradius 8.63363
rwrist 117.046
rhand -5.53645 733.765
rfingers 7.12502
rthumb 20.2779 -15.1969
lclavicle -7.35503e-014 6.99722e-014
lhumerus -117.386 207.641 -112.856
lradius 70.5924
lwrist 42.9642
lhand -17.5094 2.76125
lfingers 7.12502
lthumb 8.7438 32.5601
rfemur 0.189639 6.58563 12.317
rtibia 36.3487
rfoot 7.6682 -19.9473
rtoes -9.6144
lfemur -187.724 197.867 -204.398
ltibia 42.8957
lfoot 373.034 10.0602
ltoes 4.17214
192
root 0.12999 18.2768 1.03076 -570.706 -98.7365 561.27
lowerback 7.51332 2.47449 2.02234
upperback -5.44055 2.8216 -6.57348
thorax -9.63481 0.88986 -8.71926
lowerneck 8.92554 -6.21574 1.27196
upperneck 8.61993 -8.81814 4.88081
head 1.40794 -4.49523 1.42525
rclavicle 2.54444e-014 -2.8625e-014
rhumerus 94.0317 -7.1158 -143.186
rradius 8.77286
rwrist 113.289
rhand -6.91669 734.261
rfingers 7.12502
rthumb 18.9509 -14.8354
lclavicle 2.54444e-014 -2.8625e-014
lhumerus -117.244 207.34 -113.259
lradius 71.1418
lwrist 42.2804
lhand -17.1624 2.00553
lfingers 7.12502
lthumb 9.07867 31.7901
rfemur 0.407326 6.28066 12.3124
rtibia 37.0802
rfoot 6.05795 -18.775
rtoes -10.5363
lfemur -187.11 197.646 -204.587
ltibia 43.1343
lfoot 370.881 9.23923
ltoes 3.54493
193
root 0.148307 18.1594 1.02971 -571.493 -98.6562 561.676
lowerback 7.92606 2.42056 1.97636
upperback -5.13459 2.77037 -6.46639
thorax -9.55457 0.88737 -8.57451
lowerneck 8.98591 -6.2191 1.15248
upperneck 8.05344 -8.79069 5.07341
head 1.23079 -4.48938 1.51783
rclavicle -3.4191e-014 6.99722e-014
rhumerus 93.3225 -7.65444 -138.705
rradius 8.97921
rwrist 109.436
rhand -8.08496 734.658
rfingers 7.12502
rthumb 17.8271 -14.5452
lclavicle -3.4191e-014 6.99722e-014
lhumerus -117.103 207.05 -113.704
lradius 71.7554
lwrist 41.4809
lhand -16.7071 1.19029
lfingers 7.12502
lthumb 9.51796 30.9553
rfemur 0.654043 5.98124 12.3006
rtibia 37.801
rfoot 4.21994 -17.6964
rtoes -11.4481
lfemur -186.493 197.381 -204.78
ltibia 43.4157
lfoot 368.585 8.24037
ltoes 2.96938
194
root 0.167832 18.0464 1.02834 -572.279 -98.5879 562.076
lowerback 8.35233 2.37218 1.93442
upperback -4.81576 2.72511 -6.3712
thorax -9.46646 0.886815 -8.4464
lowerneck 8.9932 -6.22871 1.10832
upperneck 7.49966 -8.76511 5.22976
head 1.06185 -4.48181 1.58486
rclavicle 3.22031e-014 -2.8625e-014
rhumerus 92.6919 -8.0466 -134.211
rradius 9.14609
rwrist 105.399
rhand -8.94392 734.903
rfingers 7.12502
rthumb 17.0004 -14.3729
lclavicle 3.22031e-014 -2.8625e-014
lhumerus -116.966 206.789 -114.201
lradius 72.4309
lwrist 40.6296
lhand -16.2342 0.337696
lfingers 7.12502
lthumb 9.97418 30.0814
rfemur 0.901678 5.73062 12.2993
rtibia 38.4949
rfoot 2.19287 -16.7902
rtoes -12.1825
lfemur -185.927 197.076 -204.957
ltibia 43.7625
lfoot 366.204 7.1604
ltoes 2.37799
195
root 0.19052 17.9382 1.02588 -573.072 -98.5276 562.461
lowerback 8.78195 2.31021 1.85772
upperback -4.48098 2.66002 -6.24438
thorax -9.36824 0.880518 -8.25878
lowerneck 9.08904 -6.22357 1.07249
upperneck 6.89853 -8.70778 5.30064
head 0.858606 -4.4606 1.62783
rclavicle 3.97569e-015 -4.6118e-014
rhumerus 92.0401 -8.283 -129.686
rradius 9.31084
rwrist 101.157
rhand -9.54085 735.014
rfingers 7.12502
rthumb 16.4258 -14.311
lclavicle 3.97569e-015 -4.6118e-014
lhumerus -116.839 206.476 -114.685
lradius 73.1075
lwrist 39.6998
lhand -15.7098 -0.439994
lfingers 7.12502
lthumb 10.4801 29.2788
rfemur 1.15141 5.51132 12.3088
rtibia 39.1701
rfoot 0.292337 -16.0024
rtoes -12.7907
lfemur -185.421 196.73 -205.109
ltibia 44.1903
lfoot 363.899 6.06714
ltoes 1.86279
196
root 0.215222 17.8384 1.02214 -573.804 -98.4838 562.785
lowerback 9.19483 2.25731 1.80449
upperback -4.13385 2.60624 -6.14635
thorax -9.24259 0.877212 -8.11653
lowerneck 9.34515 -6.2355 1.13889
upperneck 6.23881 -8.65694 5.34896
head 0.606427 -4.44542 1.65517
rclavicle 1.23246e-014 -1.43125e-014
rhumerus 91.4876 -8.459 -125.176
rradius 9.46313
rwrist 96.8205
rhand -9.93555 734.96
rfingers 7.12502
rthumb 16.0457 -14.3953
lclavicle 1.23246e-014 -1.43125e-014
lhumerus -116.777 206.249 -115.155
lradius 73.8457
lwrist 38.6572
lhand -15.2862 -1.15083
lfingers 7.12502
lthumb 10.8887 28.5469
rfemur 1.38674 5.36185 12.346
rtibia 39.8014
rfoot -1.40471 -15.4293
rtoes -13.4626
lfemur -185.002 196.416 -205.24
ltibia 44.6819
lfoot 361.71 5.0623
ltoes 1.26545
197
root 0.239994 17.7486 1.01922 -574.461 -98.4685 563.063
lowerback 9.57635 2.20682 1.73644
upperback -3.79346 2.55236 -6.04685
thorax -9.10647 0.874078 -7.96219
lowerneck 9.66956 -6.24343 1.25208
upperneck 5.55871 -8.59214 5.36736
head 0.333486 -4.42449 1.66963
rclavicle -5.76476e-014 -6.52014e-014
rhumerus 91.0207 -8.58539 -120.647
rradius 9.55545
rwrist 92.3274
rhand -10.2039 734.779
rfingers 7.12502
rthumb 15.7873 -14.5971
lclavicle -5.76476e-014 -6.52014e-014
lhumerus -116.748 206.043 -115.655
lradius 74.6203
lwrist 37.6102
lhand -14.9657 -1.79096
lfingers 7.12502
lthumb 11.1978 27.8902
rfemur 1.601 5.19623 12.3625
rtibia 40.3801
rfoot -2.94888 -14.9338
rtoes -14.0333
lfemur -184.698 196.137 -205.352
ltibia 45.2135
lfoot 359.8 4.19714
ltoes 0.765503
198
root 0.263166 17.6729 1.01571 -575.095 -98.4637 563.341
lowerback 9.92344 2.15018 1.66268
upperback -3.44743 2.48673 -5.96258
thorax -8.94531 0.864825 -7.81676
lowerneck 9.94966 -6.24676 1.35958
upperneck 4.97176 -8.53046 5.38934
head 0.0974208 -4.4039 1.68355
rclavicle -1.27222e-014 1.90833e-014
rhumerus 90.4883 -8.68633 -116.145
rradius 9.71221
rwrist 87.7731
rhand -10.5169 734.491
rfingers 7.12502
rthumb 15.4858 -14.9093
lclavicle -1.27222e-014 1.90833e-014
lhumerus -116.586 205.799 -116.266
lradius 75.2686
lwrist 36.5364
lhand -14.7109 -2.36353
lfingers 7.12502
lthumb 11.4435 27.3042
rfemur 1.82991 5.07273 12.3911
rtibia 40.8782
rfoot -4.3108 -14.5556
rtoes -14.5478
lfemur -184.495 195.831 -205.432
ltibia 45.7487
lfoot 358.246 3.43888
ltoes 0.236816
199
root 0.283391 17.6133 1.01087 -575.345 -98.5016 563.248
lowerback 10.2718 2.08208 1.59485
upperback -3.10501 2.40623 -5.86842
thorax -8.79102 0.847091 -7.66179
lowerneck 10.1557 -6.23702 1.33297
upperneck 4.508 -8.47892 5.50177
head -0.0789177 -4.38879 1.74322
rclavicle 4.8901e-014 -4.45278e-014
rhumerus 89.8775 -8.80672 -111.621
rradius 9.92578
rwrist 83.192
rhand -10.9645 734.128
rfingers 7.12502
rthumb 15.0547 -15.305
lclavicle 4.8901e-014 -4.45278e-014
lhumerus -116.384 205.555 -116.912
lradius 75.8846
lwrist 35.4193
lhand -14.6073 -2.76678
lfingers 7.12502
lthumb 11.5435 26.8953
rfemur 2.10013 4.93397 12.4668
rtibia 41.2868
rfoot -5.48977 -14.3035
rtoes -15.0597
lfemur -184.33 195.605 -205.477
ltibia 46.2576
lfoot 357.075 2.82313
ltoes -0.347653
